<?xml version="1.0" encoding="utf-8"?>
<!-- Generator: Adobe Illustrator 22.0.1, SVG Export Plug-In . SVG Version: 6.00 Build 0)  -->
<svg version="1.1" id="Capa_1" xmlns="http://www.w3.org/2000/svg" xmlns:xlink="http://www.w3.org/1999/xlink" x="0px" y="0px"
	 viewBox="0 0 510 510" style="enable-background:new 0 0 510 510;" xml:space="preserve">
<style type="text/css">
	.st0{fill:#F8B932;}
</style>
<path class="st0" d="M177.5,459.8c0,7.6-6.1,13.7-13.7,13.7s-13.7-6.1-13.7-13.7c0-7.6,6.1-13.7,13.7-13.7S177.5,452.2,177.5,459.8z
	"/>
<path class="st0" d="M163.8,409.5c-27.7,0-50.2,22.5-50.2,50.2c0,27.7,22.5,50.2,50.2,50.2c27.7,0,50.2-22.5,50.2-50.2
	C214,432,191.5,409.6,163.8,409.5z M163.8,491.7c-17.7,0-32-14.3-32-32c0-17.7,14.3-32,32-32c17.7,0,32,14.3,32,32
	C195.8,477.4,181.5,491.7,163.8,491.7z"/>
<path class="st0" d="M257.5,336c-49.3,16.4-145.2,4.9-171.3,1.3v14.5c5.5,5.8,15.3,17.1,34.3,39.2l42.3,0.1c0.6,0,1.2,0,1.8,0.1
	l58.7-0.1c0.4,0,0.7,0,1.1,0.1c3.8,0.9,7.4,2.6,10.5,5l1.6,0.9l9.7-25.8c0.7-1.8,1.9-3.3,3.5-4.4c8.5-2.7,17.5-3.7,26.4-3.2h20.4
	c3,0,15.5,0.1,17.7,0h0.6c9.7,1.6,19,5.1,27.4,10.1v-47.8C313.4,323.3,284.6,326.7,257.5,336z"/>
<path class="st0" d="M401.3,409.5c-27.7,0-50.2,22.5-50.2,50.2c0,27.7,22.5,50.2,50.2,50.2c27.7,0,50.2-22.5,50.2-50.2
	C451.5,432,429,409.6,401.3,409.5z M401.3,491.7c-17.7,0-32-14.3-32-32c0-17.7,14.3-32,32-32c17.7,0,32,14.3,32,32
	C433.2,477.4,418.9,491.7,401.3,491.7z"/>
<path class="st0" d="M22.5,395.4l0.2,4.9c3.6,13.5,11.3,25.6,22,34.6l42.4-54.5c-4.8-5.5-9.1-10.5-12.1-14L22.5,395.4z"/>
<path class="st0" d="M329.6,143.9c6.8-4.3,13.1-9.3,19-14.8c20.3-20.3,31.2-93.4,33.8-121.2c-6.2-1.7-12.5-3.2-18.9-4.4L344.1,0
	c-0.2-0.1-0.5,0-0.7,0.1c-0.2,0.1-0.4,0.3-0.4,0.6l-30.3,106.1c-2.1,7.1-4.7,14.1-7.8,20.8C314.5,130.5,323.1,136.2,329.6,143.9z"/>
<path class="st0" d="M313.7,153.8c-4.3-5.1-10.4-8.3-17-9.1l-12.5,25.1l0.1,0.1C294.4,164.8,304.4,159.3,313.7,153.8z"/>
<path class="st0" d="M415,459.8c0,7.6-6.1,13.7-13.7,13.7c-7.6,0-13.7-6.1-13.7-13.7c0-7.6,6.1-13.7,13.7-13.7
	C408.8,446.1,415,452.2,415,459.8z"/>
<path class="st0" d="M360.2,326.8v64.5h83.2l5.5-47.8c1.6-9.3,9.5-16.1,18.9-16.1c0.5,0,0.9-0.4,0.9-0.9v-22.8
	c-14,4.7-36.7,12.1-47.9,14.5C407.4,320.9,372.1,325.3,360.2,326.8z"/>
<path class="st0" d="M487,181.7l-4-35.5c0-0.3-0.1-0.7-0.1-1V66.7c-23.3-23.6-51.6-41.8-82.8-53.1c-2.3,22.3-12.4,102.2-38.7,128.4
	c-6.5,6.2-13.5,11.7-21,16.6c3.8,6.1,7.1,12.6,9.9,19.2c1.8,4.7-0.4,9.9-5.1,11.8s-9.9-0.4-11.9-5c-2.4-5.6-5.2-11.1-8.5-16.2
	c-9,5.3-18.4,10.5-27.3,15.1c5.3,5.9,9.6,12.7,12.6,20.1c1.7,4.7-0.7,10-5.5,11.7c-1,0.4-2,0.5-3.1,0.5c-3.9,0-7.3-2.4-8.6-6.1
	c-3-6.6-7.2-12.7-12.4-17.8c-5.5,2.6-10.5,4.9-14.6,6.8c-0.9,0.3-1.8,0.5-2.7,0.6c-2,1.4-4.1,2.6-6.3,3.7c5.1,6.4,8.3,14.2,9.1,22.3
	c0.2,5-3.6,9.3-8.7,9.6h-0.5c-4.9,0-8.9-3.8-9.1-8.7c-1.1-5.9-3.9-11.3-8-15.5l-26.2,11.5c5.7,5.9,9.5,13.4,11,21.5
	c0.7,5-2.8,9.6-7.8,10.3c-0.4,0.1-0.8,0.1-1.3,0.1c-4.6,0-8.4-3.4-9-7.9c-1.9-6.3-5.7-12-10.8-16.1l-26,11.4c4.8,5.7,7.9,12.6,9,20
	c0.5,5-3.1,9.5-8.1,10c-0.3,0-0.7,0.1-1,0.1c-4.7,0-8.6-3.5-9.1-8.1c-1.3-5.5-4.2-10.5-8.3-14.3l-30.5,13.3c-0.6,0.5-1.2,0.8-1.9,1
	l-23.3,7.6c-2.1,0.7-4.2,1.6-6.2,2.5l-6.1,3.1l-8,4c-8,6.3-11.6,16.7-9.1,26.6l2.8,11.1H77c0.6,0.1,1.1,0.2,1.7,0.3
	c1.2-0.3,2.5-0.4,3.7-0.2c1.2,0.2,117.2,17.7,169.3,0.4c32.5-11.5,67.3-14.8,101.3-9.4c0.1,0,0.2,0.1,0.2,0.1c0.3,0,0.5-0.2,0.7-0.2
	c0.5-0.1,47.9-5.8,63.1-9c11.9-2.5,39.5-11.7,51.7-15.9v-9.8c0-2.4,0.4-4.8,1.3-7c0.1-0.4,0.3-0.8,0.3-0.9
	C479.9,243,490.3,212.1,487,181.7z M419,53.3c5,0,9.1,4.1,9.1,9.1c0,5-4.1,9.1-9.1,9.1c-5,0-9.1-4.1-9.1-9.1
	C409.8,57.4,413.9,53.3,419,53.3z M391.6,162.9c-5,0-9.1-4.1-9.1-9.1c0-5,4.1-9.1,9.1-9.1s9.1,4.1,9.1,9.1
	C400.7,158.8,396.6,162.9,391.6,162.9z M400.7,108.1c0-5,4.1-9.1,9.1-9.1s9.1,4.1,9.1,9.1c0,5-4.1,9.1-9.1,9.1
	S400.7,113.2,400.7,108.1z M419.3,281.7c-5,0-9.1-4.1-9.1-9.1c0-5,4.1-9.1,9.1-9.1c5,0,9.1,4.1,9.1,9.1
	C428.5,277.6,424.4,281.7,419.3,281.7z M450.8,262.5c-4.5,2.3-10,0.4-12.3-4.1c-2.3-4.5-0.4-10,4.1-12.3
	c7.7-3.9,13.2-37.4,13.2-64.9c0-5,4.1-9.1,9.1-9.1s9.1,4.1,9.1,9.1C474.1,197.5,472.5,251.6,450.8,262.5z"/>
</svg>
