<svg height="510pt" viewBox="-22 0 510 510.52139" width="510pt" xmlns="http://www.w3.org/2000/svg"><path d="m155.425781 460.234375c0 7.574219-6.140625 13.714844-13.714843 13.714844-7.574219 0-13.714844-6.140625-13.714844-13.714844s6.140625-13.714844 13.714844-13.714844c7.574218 0 13.714843 6.140625 13.714843 13.714844zm0 0"/><path d="m141.710938 409.949219c-27.773438 0-50.285157 22.515625-50.285157 50.285156 0 27.773437 22.511719 50.285156 50.285157 50.285156 27.769531 0 50.285156-22.511719 50.285156-50.285156-.03125-27.757813-22.527344-50.253906-50.285156-50.285156zm0 82.285156c-17.675782 0-32-14.324219-32-32 0-17.671875 14.324218-32 32-32 17.671874 0 32 14.328125 32 32 0 17.675781-14.328126 32-32 32zm0 0"/><path d="m235.460938 336.339844c-49.371094 16.457031-145.371094 4.902344-171.464844 1.300781v14.554687c5.53125 5.839844 15.285156 17.152344 34.285156 39.230469l42.339844.128907c.613281-.007813 1.222656.023437 1.828125.089843l58.714843-.089843c.367188-.035157.738282-.011719 1.097657.0625 3.8125.902343 7.394531 2.597656 10.507812 4.976562l1.5625.914062 9.746094-25.847656c.675781-1.785156 1.890625-3.316406 3.472656-4.378906 8.527344-2.667969 17.472657-3.746094 26.386719-3.183594h20.378906c2.964844 0 15.542969.054688 17.675782 0h.613281c9.699219 1.621094 19.007812 5.0625 27.425781 10.148438v-47.851563c-28.574219-2.726562-57.40625.664063-84.570312 9.945313zm0 0"/><path d="m379.425781 409.949219c-27.773437 0-50.289062 22.515625-50.289062 50.285156 0 27.773437 22.515625 50.285156 50.289062 50.285156 27.769531 0 50.285157-22.511719 50.285157-50.285156-.03125-27.757813-22.527344-50.253906-50.285157-50.285156zm0 82.285156c-17.675781 0-32-14.324219-32-32 0-17.671875 14.324219-32 32-32 17.671875 0 32 14.328125 32 32 0 17.675781-14.328125 32-32 32zm0 0"/><path d="m.261719 395.804688.238281 4.910156c3.558594 13.554687 11.265625 25.65625 22.042969 34.617187l42.414062-54.59375c-4.765625-5.484375-9.070312-10.515625-12.144531-14.0625zm0 0"/><path d="m307.644531 144.03125c6.789063-4.347656 13.160157-9.3125 19.035157-14.832031 20.324218-20.324219 31.195312-93.511719 33.828124-121.332031-6.226562-1.703126-12.527343-3.203126-18.925781-4.371094l-19.355469-3.464844c-.242187-.0625-.496093-.02734375-.707031.101562-.214843.128907-.363281.339844-.417969.582032l-30.335937 106.195312c-2.09375 7.125-4.703125 14.089844-7.808594 20.835938 9.640625 2.90625 18.21875 8.566406 24.6875 16.285156zm0 0"/><path d="m291.773438 153.949219c-4.335938-5.085938-10.429688-8.347657-17.0625-9.140625l-12.515626 25.113281.117188.109375c10.09375-5.109375 20.167969-10.59375 29.460938-16.082031zm0 0"/><path d="m393.136719 460.234375c0 7.574219-6.136719 13.714844-13.710938 13.714844s-13.714843-6.140625-13.714843-13.714844 6.140624-13.714844 13.714843-13.714844 13.710938 6.140625 13.710938 13.714844zm0 0"/><path d="m338.28125 327.105469v64.558593h83.292969l5.546875-47.863281c1.570312-9.261719 9.558594-16.066406 18.953125-16.136719.507812 0 .914062-.410156.914062-.914062v-22.855469c-14.058593 4.714844-36.707031 12.074219-47.945312 14.472657-13.511719 2.832031-48.792969 7.265624-60.761719 8.738281zm0 0"/><path d="m465.25 181.910156-4.023438-35.53125c-.039062-.339844-.054687-.679687-.054687-1.023437v-78.628907c-23.320313-23.667968-51.628906-41.835937-82.863281-53.175781-2.339844 22.347657-12.40625 102.273438-38.710938 128.578125-6.484375 6.164063-13.523437 11.714844-21.027344 16.585938 3.820313 6.136718 7.128907 12.582031 9.890626 19.261718 1.835937 4.675782-.445313 9.953126-5.105469 11.824219-4.660157 1.871094-9.957031-.367187-11.863281-5.011719-2.382813-5.644531-5.21875-11.082031-8.484376-16.265624-8.996093 5.347656-18.375 10.488281-27.335937 15.121093 5.351563 5.917969 9.625 12.726563 12.625 20.117188 1.710937 4.742187-.746094 9.972656-5.484375 11.691406-.988281.359375-2.03125.539063-3.082031.539063-3.859375 0-7.300781-2.425782-8.601563-6.058594-2.976562-6.65625-7.171875-12.695313-12.363281-17.8125-5.484375 2.625-10.46875 4.9375-14.628906 6.773437-.859375.328125-1.769531.519531-2.6875.570313-1.996094 1.40625-4.101563 2.652344-6.300781 3.71875 5.136718 6.410156 8.3125 14.167968 9.144531 22.335937.25 5.039063-3.628907 9.328125-8.667969 9.582031h-.476562c-4.875.007813-8.898438-3.816406-9.140626-8.683593-1.089843-5.863281-3.886718-11.273438-8.046874-15.542969l-26.238282 11.472656c5.664063 5.945313 9.492188 13.40625 11.015625 21.476563.6875 4.996093-2.796875 9.605469-7.789062 10.304687-.421875.0625-.847657.09375-1.269531.089844-4.5625-.007812-8.417969-3.371094-9.042969-7.890625-1.902344-6.351563-5.6875-11.976563-10.855469-16.136719l-26.066406 11.402344c4.769531 5.71875 7.890625 12.628906 9.027344 19.984375.53125 5.007813-3.082032 9.503906-8.082032 10.058594-.339844.042969-.675781.066406-1.015625.0625-4.65625-.003907-8.566406-3.507813-9.078125-8.136719-1.339844-5.488281-4.234375-10.472656-8.339844-14.351562l-30.527343 13.347656c-.550781.476562-1.210938.804687-1.921875.960937l-23.324219 7.585938c-2.121094.734375-4.203125 1.582031-6.234375 2.535156l-6.144531 3.132813-7.960938 4.042968c-8.015625 6.296875-11.59375 16.710938-9.144531 26.605469l2.761719 11.097656h7.121093c.566407.058594 1.125.171875 1.664063.339844 1.214844-.332031 2.484375-.410156 3.730469-.226563 1.160156.171876 117.304687 17.746094 169.4375.355469 32.488281-11.554687 67.351562-14.789062 101.410156-9.398437.09375 0 .15625.070312.238281.089844.257813-.046876.457031-.199219.722657-.238282.484374-.054687 47.953124-5.757812 63.1875-9.003906 11.957031-2.550781 39.496093-11.730469 51.757812-15.890625v-9.820313c-.035156-2.410156.417969-4.800781 1.332031-7.03125.121094-.363281.277344-.820312.332031-.914062 9.445313-23.578125 19.875-54.5 16.585938-84.871094zm-68.105469-128.53125c5.046875 0 9.140625 4.09375 9.140625 9.140625 0 5.050781-4.09375 9.144531-9.140625 9.144531-5.050781 0-9.144531-4.09375-9.144531-9.144531 0-5.046875 4.09375-9.140625 9.144531-9.140625zm-27.429687 109.714844c-5.050782 0-9.144532-4.09375-9.144532-9.144531 0-5.046875 4.09375-9.140625 9.144532-9.140625 5.050781 0 9.140625 4.09375 9.140625 9.140625 0 5.050781-4.089844 9.144531-9.140625 9.144531zm9.140625-54.859375c0-5.046875 4.09375-9.140625 9.144531-9.140625s9.144531 4.09375 9.144531 9.140625c0 5.050781-4.09375 9.144531-9.144531 9.144531s-9.144531-4.09375-9.144531-9.144531zm18.652343 173.714844c-5.046874 0-9.140624-4.09375-9.140624-9.140625 0-5.050782 4.09375-9.144532 9.140624-9.144532 5.050782 0 9.144532 4.09375 9.144532 9.144532 0 5.046875-4.09375 9.140625-9.144532 9.140625zm31.515626-19.199219c-4.519532 2.257812-10.011719.421875-12.269532-4.097656-2.257812-4.519532-.421875-10.011719 4.097656-12.269532 7.742188-3.929687 13.230469-37.402343 13.230469-65.003906 0-5.050781 4.089844-9.144531 9.140625-9.144531 5.050782 0 9.144532 4.09375 9.144532 9.144531 0 16.339844-1.691407 70.492188-23.34375 81.371094zm0 0"/></svg>